<?xml version="1.0" encoding="UTF-8"?>

<!DOCTYPE svg PUBLIC "-//W3C//DTD SVG 1.1//EN" "http://www.w3.org/Graphics/SVG/1.1/DTD/svg11.dtd">
<svg width="500pt" height="600pt" xmlns="http://www.w3.org/2000/svg" xmlns:xlink="http://www.w3.org/1999/xlink" xmlns:rdf="http://www.w3.org/1999/02/22-rdf-syntax-ns#" xmlns:dc="http://purl.org/dc/elements/1.1/" xmlns:cc="http://web.resource.org/cc/">

  <defs
     id="defs5055" />
  <metadata
     id="metadata5058">
    <rdf:RDF>
      <cc:Work
         rdf:about="">
        <dc:format>image/svg+xml</dc:format>
        <dc:type
           rdf:resource="http://purl.org/dc/dcmitype/StillImage" />
        <dc:title></dc:title>
      </cc:Work>
    </rdf:RDF>
  </metadata>
  <g
     transform="translate(-0.97096846,-775.50008)"
     id="layer1">
    <g
       transform="matrix(0.66949587,0,0,0.66949587,522.60107,694.06139)"
       id="g4920">
      <g
         transform="matrix(2.2749259,0,0,-2.2749259,-730.78054,223.0721)"
         id="g3041"
         style="fill:#a0d5f0;fill-opacity:1">
        <path
           d="M 0,0 -21.257,-16.59 7.744,-21.97 0,0 z"
           id="path3043"
           style="fill:#a0d5f0;fill-opacity:1;fill-rule:nonzero;stroke:none" />
      </g>
      <g
         transform="matrix(2.2749259,0,0,-2.2749259,-694.02183,327.25665)"
         id="g3045"
         style="fill:#4fb2e3;fill-opacity:0.99607843">
        <path
           d="M 0,0 31.451,35.558 -16.158,45.797 0,0 z"
           id="path3047"
           style="fill:#4fb2e3;fill-opacity:0.99607843;fill-rule:nonzero;stroke:none" />
      </g>
      <g
         transform="matrix(2.2749259,0,0,-2.2749259,-520.02868,130.48672)"
         id="g3049"
         style="fill:#a0d5f0;fill-opacity:1">
        <path
           d="M 0,0 -76.483,-86.495 13.446,-73.555 0,0 z"
           id="path3051"
           style="fill:#a0d5f0;fill-opacity:1;fill-rule:nonzero;stroke:none" />
      </g>
      <g
         transform="matrix(2.2749259,0,0,-2.2749259,-520.02868,130.48672)"
         id="g3053"
         style="fill:#4fb2e3;fill-opacity:0.99607843">
        <path
           d="M 0,0 93.871,3.888 13.446,-73.555 0,0 z"
           id="path3055"
           style="fill:#4fb2e3;fill-opacity:0.99607843;fill-rule:nonzero;stroke:none" />
      </g>
      <g
         transform="matrix(2.2749259,0,0,-2.2749259,-694.02183,327.25665)"
         id="g3057"
         style="fill:#4fb2e3;fill-opacity:0.99607843">
        <path
           d="M 0,0 73.878,-44.5 89.929,12.94 0,0 z"
           id="path3059"
           style="fill:#4fb2e3;fill-opacity:0.99607843;fill-rule:nonzero;stroke:none" />
      </g>
      <g
         transform="matrix(2.2749259,0,0,-2.2749259,-532.83423,453.25729)"
         id="g3061"
         style="fill:#a0d5f0;fill-opacity:1">
        <path
           d="M 0,0 19.075,68.327 43.205,-35.428 0,0 z"
           id="path3063"
           style="fill:#a0d5f0;fill-opacity:1;fill-rule:nonzero;stroke:none" />
      </g>
    </g>
  </g>
</svg>
